<?xml version="1.0" standalone="no"?>
<!DOCTYPE svg PUBLIC "-//W3C//DTD SVG 20010904//EN"
 "http://www.w3.org/TR/2001/REC-SVG-20010904/DTD/svg10.dtd">
<svg version="1.0" xmlns="http://www.w3.org/2000/svg"
 width="152.000000pt" height="152.000000pt" viewBox="0 0 152.000000 152.000000"
 preserveAspectRatio="xMidYMid meet">
<metadata>
Created by potrace 1.11, written by Peter Selinger 2001-2013
</metadata>
<g transform="translate(0.000000,152.000000) scale(0.100000,-0.100000)"
fill="#000000" stroke="none">
<path d="M480 1060 c-63 -3 -120 -8 -126 -12 -7 -5 -11 -89 -10 -267 l1 -260
-69 0 c-46 1 -71 -3 -77 -12 -23 -38 -4 -39 562 -39 532 0 549 1 559 19 14 28
0 33 -76 32 -35 0 -64 3 -65 7 -1 4 -2 120 -2 259 -1 156 -6 256 -12 262 -12
12 -496 19 -685 11z"/>
</g>
</svg>
